<?xml version="1.0" standalone="no"?>
<!DOCTYPE svg PUBLIC "-//W3C//DTD SVG 20010904//EN"
 "http://www.w3.org/TR/2001/REC-SVG-20010904/DTD/svg10.dtd">
<svg version="1.0" xmlns="http://www.w3.org/2000/svg"
 width="283.000000pt" height="111.000000pt" viewBox="0 0 283.000000 111.000000"
 preserveAspectRatio="xMidYMid meet">

<g transform="translate(0.000000,111.000000) scale(0.100000,-0.100000)"
fill="#000000" stroke="none">
<path d="M1118 932 c-46 -3 -47 -4 -57 -45 -5 -23 -26 -95 -46 -160 -20 -65
-34 -125 -31 -134 4 -9 17 -13 38 -11 26 2 36 10 47 36 14 30 17 32 68 32 49
0 53 -2 59 -27 4 -16 12 -31 18 -35 16 -11 64 -10 71 2 10 16 -88 331 -105
338 -8 4 -36 6 -62 4z m45 -169 c6 -32 6 -33 -29 -33 -35 0 -35 1 -29 33 4 17
11 48 17 67 l11 35 12 -35 c7 -19 15 -50 18 -67z"/>
<path d="M194 893 c-4 -20 -5 -93 -2 -162 7 -154 3 -173 -40 -186 -24 -7 -32
-15 -32 -32 0 -47 96 -48 131 -1 26 33 29 63 29 249 l0 169 -40 0 c-37 0 -39
-2 -46 -37z"/>
<path d="M422 913 c-5 -10 -21 -58 -36 -108 -15 -49 -36 -117 -47 -149 -21
-67 -16 -78 35 -74 28 3 39 13 50 51 4 13 17 17 61 17 48 0 55 -3 55 -19 0
-11 7 -27 16 -35 16 -17 84 -22 84 -7 0 9 -8 34 -70 239 l-31 102 -54 0 c-42
0 -56 -4 -63 -17z m81 -122 c13 -53 13 -60 -1 -66 -18 -7 -52 3 -52 15 0 22
24 110 30 110 4 0 14 -27 23 -59z"/>
<path d="M660 919 c0 -26 93 -325 104 -331 15 -10 68 -10 83 0 7 5 32 73 56
153 24 79 47 154 51 167 7 22 6 23 -40 20 l-48 -3 -18 -75 c-35 -138 -39 -151
-48 -145 -6 4 -10 14 -10 23 0 9 -9 59 -21 110 l-21 92 -44 0 c-25 0 -44 -5
-44 -11z"/>
<path d="M184 397 c-2 -7 -3 -60 -2 -118 l3 -104 28 -3 c26 -3 27 -1 27 37 0
29 4 41 15 41 27 0 63 22 74 47 17 37 13 62 -14 88 -19 20 -34 25 -75 25 -33
0 -52 -5 -56 -13z m91 -67 c0 -16 -6 -26 -17 -28 -14 -3 -18 3 -18 28 0 25 4
31 18 28 11 -2 17 -12 17 -28z"/>
<path d="M380 290 l0 -120 24 0 c22 0 25 5 28 43 2 23 8 42 13 41 6 0 20 -20
33 -42 18 -31 30 -42 48 -42 30 0 30 15 0 65 -24 39 -24 40 -5 63 26 33 24 58
-6 87 -20 21 -34 25 -80 25 l-55 0 0 -120z m95 45 c0 -13 -8 -21 -22 -23 -19
-3 -23 1 -23 23 0 22 4 26 23 23 14 -2 22 -10 22 -23z"/>
<path d="M624 392 c-44 -35 -56 -95 -33 -161 23 -65 119 -83 170 -32 26 26 29
36 29 91 0 55 -3 65 -29 91 -24 23 -38 29 -73 29 -26 0 -52 -7 -64 -18z m97
-48 c16 -19 15 -90 -2 -110 -17 -20 -57 -17 -69 5 -5 11 -10 34 -10 51 0 17 5
40 10 51 13 23 53 25 71 3z"/>
<path d="M883 398 c-35 -17 -57 -68 -51 -122 9 -80 67 -118 153 -102 l35 7 0
64 0 65 -45 0 c-41 0 -45 -2 -45 -25 0 -19 5 -25 21 -25 28 0 21 -34 -7 -38
-32 -5 -54 24 -54 68 0 52 22 73 72 68 30 -3 39 0 44 14 3 10 2 22 -1 28 -8
13 -94 12 -122 -2z"/>
<path d="M1070 290 l0 -120 25 0 c16 0 26 6 27 18 1 9 2 24 4 32 1 8 2 21 3
28 2 21 20 4 41 -39 17 -32 26 -39 50 -39 17 0 30 2 30 5 0 3 -13 26 -29 52
l-29 46 21 29 c41 56 -4 108 -95 108 l-48 0 0 -120z m98 47 c4 -20 -25 -34
-39 -20 -14 14 1 45 20 41 9 -2 17 -11 19 -21z"/>
<path d="M1333 398 c-9 -12 -73 -206 -73 -222 0 -3 13 -6 29 -6 22 0 30 6 35
25 9 36 71 36 88 0 8 -18 19 -25 40 -25 23 0 28 4 24 18 -3 9 -21 62 -39 117
-31 96 -33 100 -63 103 -17 2 -35 -3 -41 -10z m53 -96 c6 -29 4 -32 -19 -32
-17 0 -25 5 -23 13 3 6 7 25 11 41 7 35 22 24 31 -22z"/>
<path d="M1509 306 c-1 -58 -2 -112 -3 -118 -1 -7 10 -13 24 -13 24 0 25 3 25
57 0 31 3 59 6 63 4 3 15 -24 24 -60 17 -60 20 -65 45 -65 25 0 29 5 48 73 21
74 21 74 25 -28 2 -36 5 -40 30 -43 l28 -3 -3 118 -3 118 -37 3 c-36 3 -36 3
-51 -50 -9 -29 -19 -66 -23 -81 -9 -38 -19 -25 -41 58 -19 69 -20 70 -56 73
l-37 3 -1 -105z"/>
<path d="M1810 290 l0 -120 25 0 c24 0 25 2 26 73 l1 72 22 -70 c19 -61 26
-70 48 -73 24 -3 28 2 42 55 29 102 35 105 35 21 1 -76 2 -78 26 -78 l25 0 0
120 0 120 -38 0 c-42 0 -40 4 -72 -119 -14 -54 -22 -45 -46 51 l-16 68 -39 0
-39 0 0 -120z"/>
<path d="M2110 290 l0 -120 30 0 30 0 0 120 0 120 -30 0 -30 0 0 -120z"/>
<path d="M2220 290 l0 -120 25 0 c24 0 24 2 27 83 l3 82 40 -80 c38 -77 41
-80 78 -83 l37 -3 0 120 0 121 -25 0 c-23 0 -24 -3 -27 -77 l-3 -78 -40 78
c-39 76 -40 77 -77 77 l-38 0 0 -120z"/>
<path d="M2517 389 c-84 -65 -41 -219 62 -219 76 0 81 5 81 77 l0 64 -42 -3
c-36 -2 -44 -7 -46 -25 -3 -18 2 -23 17 -23 14 0 21 -6 21 -20 0 -15 -7 -20
-24 -20 -48 0 -72 72 -40 118 13 19 24 23 57 20 32 -2 42 1 47 17 10 26 -5 35
-61 35 -32 0 -55 -6 -72 -21z"/>
</g>
</svg>
