<?xml version="1.0" standalone="no"?>
<!DOCTYPE svg PUBLIC "-//W3C//DTD SVG 20010904//EN"
 "http://www.w3.org/TR/2001/REC-SVG-20010904/DTD/svg10.dtd">
<svg version="1.0" xmlns="http://www.w3.org/2000/svg"
 width="600.60000pt" height="200.000000pt" viewBox="0 0 266.000000 125.000000"
 preserveAspectRatio="xMidYMid meet">

<g transform="translate(0.000000,125.000000) scale(0.110000,-0.110000)"
fill="#000000" stroke="none">
<path d="M317 1105 c-85 -30 -131 -105 -125 -201 7 -115 82 -184 201 -184 104
0 157 35 157 106 l0 44 -77 -2 -78 -2 68 -3 67 -4 0 -40 c0 -34 -5 -42 -32
-59 -96 -58 -234 -19 -274 77 -22 50 -17 131 9 178 45 82 178 111 254 57 37
-26 51 -29 32 -5 -21 24 -89 53 -129 52 -19 0 -52 -6 -73 -14z"/>
<path d="M1010 928 c-41 -104 -76 -194 -78 -199 -2 -5 1 -9 6 -9 5 0 16 18 25
40 l15 40 111 0 111 0 16 -40 c9 -22 21 -40 26 -40 6 0 8 6 5 13 -92 232 -150
373 -155 379 -4 4 -41 -79 -82 -184z m130 25 c25 -64 47 -120 48 -125 2 -4
-42 -8 -98 -8 -93 0 -102 2 -96 18 51 134 91 232 96 232 3 0 26 -52 50 -117z"/>
<path d="M2270 1107 c-72 -23 -130 -111 -130 -198 1 -69 60 -154 123 -178 70
-27 187 -4 227 44 23 27 2 29 -30 2 -150 -126 -362 39 -281 218 47 104 177
138 266 71 41 -32 55 -34 29 -5 -45 51 -129 70 -204 46z"/>
<path d="M640 915 c0 -123 4 -195 10 -195 6 0 10 23 10 50 l0 50 44 0 c41 0
48 -4 90 -52 25 -29 48 -49 51 -46 4 3 -7 21 -22 39 -58 69 -57 65 -18 88 62
36 82 119 45 190 -25 49 -70 71 -149 71 l-61 0 0 -195z m121 175 c50 -14 80
-50 86 -103 10 -90 -45 -147 -141 -147 l-46 0 0 130 0 130 33 0 c17 0 48 -5
68 -10z"/>
<path d="M1330 915 c0 -123 4 -195 10 -195 6 0 10 22 10 49 l0 48 53 6 c28 3
64 11 80 18 42 19 71 73 70 131 -1 90 -57 138 -160 138 l-63 0 0 -195z m159
157 c14 -10 33 -38 41 -60 31 -89 -33 -172 -131 -172 l-49 0 0 131 0 132 57
-6 c32 -3 68 -14 82 -25z"/>
<path d="M1650 915 c0 -123 4 -195 10 -195 6 0 10 30 10 70 l0 70 115 0 115 0
0 -70 c0 -40 4 -70 10 -70 6 0 10 72 10 195 0 123 -4 195 -10 195 -6 0 -10
-47 -10 -120 l0 -120 -115 0 -115 0 0 120 c0 73 -4 120 -10 120 -6 0 -10 -72
-10 -195z"/>
<path d="M2030 920 c1 -104 6 -192 11 -195 5 -4 9 73 9 189 0 129 -4 196 -10
196 -7 0 -10 -65 -10 -190z"/>
<path d="M964 541 c-30 -13 -54 -50 -54 -84 0 -35 32 -68 101 -102 76 -38 99
-62 99 -102 0 -48 -14 -70 -55 -83 -46 -15 -89 -5 -131 32 -33 29 -46 27 -21
-4 27 -33 62 -48 115 -48 46 0 58 4 83 29 31 32 38 75 17 114 -15 29 -31 42
-99 77 -72 37 -89 54 -89 91 0 64 87 93 144 48 30 -23 36 -11 7 15 -23 21 -87
30 -117 17z"/>
<path d="M1476 543 c-69 -18 -146 -116 -146 -187 0 -81 42 -151 111 -186 55
-29 151 -27 204 3 38 21 40 25 43 75 l3 52 -78 -2 -78 -2 68 -3 67 -4 0 -43
c0 -41 -3 -45 -37 -62 -51 -24 -137 -24 -186 0 -111 55 -128 221 -32 305 57
50 158 55 217 11 36 -27 53 -16 18 11 -43 33 -117 46 -174 32z"/>
<path d="M1780 352 c0 -125 4 -202 10 -202 6 0 11 70 12 175 l3 176 125 -167
c69 -92 130 -175 137 -183 10 -13 12 25 13 187 0 128 -4 202 -10 202 -6 0 -10
-65 -10 -175 l0 -176 -126 168 c-70 92 -133 175 -140 183 -12 12 -14 -17 -14
-188z"/>
<path d="M220 346 l0 -196 64 0 c147 0 226 68 226 197 0 70 -21 115 -73 157
-36 29 -46 31 -128 34 l-89 4 0 -196z m186 158 c59 -30 78 -64 82 -147 3 -62
1 -77 -20 -106 -40 -60 -71 -75 -154 -79 l-74 -4 0 182 0 183 64 -5 c35 -3 81
-14 102 -24z"/>
<path d="M600 345 l0 -195 115 0 c70 0 115 4 115 10 0 6 -42 10 -105 10 l-105
0 0 60 0 59 93 4 92 3 -92 2 -93 2 0 115 0 114 103 4 102 3 -112 2 -113 2 0
-195z"/>
<path d="M1220 345 c0 -127 3 -195 10 -195 6 0 10 68 10 195 0 113 -4 195 -9
195 -6 0 -10 -82 -11 -195z"/>
</g>
</svg>
