<?xml version="1.0" standalone="no"?>
<!DOCTYPE svg PUBLIC "-//W3C//DTD SVG 20010904//EN"
 "http://www.w3.org/TR/2001/REC-SVG-20010904/DTD/svg10.dtd">
<svg version="1.0" xmlns="http://www.w3.org/2000/svg"
 width="512.000000pt" height="124.000000pt" viewBox="0 0 512.000000 124.000000"
 preserveAspectRatio="xMidYMid meet">

<g transform="translate(0.000000,124.000000) scale(0.100000,-0.100000)"
fill="#000000" stroke="none">
<path d="M439 695 l-151 -255 -74 0 -74 0 0 -75 0 -75 119 0 119 0 118 201
119 200 3 -200 2 -201 103 0 102 0 120 207 120 207 3 -207 2 -207 85 0 85 0 0
330 0 330 -103 0 -103 0 -119 -202 -120 -203 -3 203 -2 202 -100 0 -99 0 -152
-255z"/>
<path d="M3652 788 c-28 -28 -3 -72 39 -66 30 4 47 33 33 56 -14 21 -55 27
-72 10z"/>
<path d="M1730 788 c0 -2 -7 -77 -15 -168 -8 -91 -15 -182 -15 -202 0 -37 1
-38 34 -38 l34 0 7 118 c13 214 12 214 74 37 51 -147 55 -155 80 -155 25 0 29
8 81 158 l55 157 6 -60 c4 -33 10 -104 14 -157 l7 -98 39 0 c36 0 38 1 34 28
-2 15 -9 88 -15 162 -6 74 -13 154 -16 178 l-5 42 -48 0 -48 0 -49 -144 c-27
-80 -51 -142 -54 -140 -3 3 -26 67 -51 142 l-46 137 -51 3 c-29 2 -52 2 -52 0z"/>
<path d="M2237 783 c-2 -5 -3 -96 -3 -203 l1 -195 111 -3 c121 -3 111 -8 105
51 -1 4 -32 7 -71 7 l-70 0 0 175 0 175 -34 0 c-19 0 -37 -3 -39 -7z"/>
<path d="M2620 585 l0 -205 130 0 130 0 0 30 0 30 -90 0 -90 0 0 60 0 59 83 3
82 3 0 30 c0 33 3 32 -122 34 l-43 1 0 50 0 50 90 0 90 0 0 30 0 30 -130 0
-130 0 0 -205z"/>
<path d="M2940 525 l0 -145 40 0 40 0 0 93 c0 107 13 137 59 137 45 0 55 -22
57 -123 2 -51 3 -95 3 -99 1 -5 17 -8 36 -8 l35 0 0 104 c0 154 -17 186 -101
186 -36 0 -54 -5 -69 -20 l-20 -20 0 20 c0 17 -7 20 -40 20 l-40 0 0 -145z"/>
<path d="M3315 639 c-98 -86 -45 -249 82 -249 16 0 45 9 66 19 l37 19 0 -24
c0 -12 -10 -35 -23 -49 -18 -22 -31 -27 -69 -27 -25 0 -60 8 -77 16 -30 16
-31 16 -45 -13 l-15 -29 42 -17 c61 -25 136 -23 186 5 62 36 71 64 71 234 l0
146 -35 0 c-24 0 -35 -5 -35 -15 0 -19 -9 -19 -34 0 -11 8 -41 15 -68 15 -39
0 -54 -6 -83 -31z m163 -52 c50 -46 14 -137 -55 -137 -41 0 -83 38 -83 74 0
83 77 119 138 63z"/>
<path d="M3650 524 l0 -145 36 3 37 3 -1 128 c0 70 -1 134 -1 142 -1 10 -12
15 -36 15 l-35 0 0 -146z"/>
<path d="M3800 525 l0 -145 35 0 c38 0 37 -3 36 100 0 60 16 117 35 124 25 10
59 7 72 -6 8 -8 12 -48 12 -115 l0 -103 41 0 41 0 -3 114 c-5 144 -19 169 -94
174 -37 2 -55 -2 -77 -18 -28 -21 -28 -21 -28 0 0 16 -6 20 -35 20 l-35 0 0
-145z"/>
<path d="M4204 660 c-32 -13 -72 -67 -80 -106 -13 -68 13 -132 64 -158 50 -26
134 -24 181 5 32 19 32 21 16 39 -16 18 -19 18 -48 4 -35 -19 -90 -13 -118 12
-40 36 -25 44 86 44 l105 0 0 35 c0 44 -21 86 -56 114 -28 22 -108 28 -150 11z
m108 -57 c38 -45 32 -53 -42 -53 -77 0 -88 12 -50 50 25 25 72 26 92 3z"/>
<path d="M4518 653 c-91 -57 -88 -216 6 -262 57 -27 196 -5 196 31 0 29 -21
37 -56 22 -46 -19 -77 -18 -108 7 -51 40 -36 49 79 49 l105 0 0 30 c0 44 -23
93 -55 118 -35 28 -126 30 -167 5z m124 -50 c10 -9 18 -24 18 -35 0 -16 -9
-18 -69 -18 -65 0 -69 1 -64 20 12 45 80 65 115 33z"/>
<path d="M4790 525 l0 -145 40 0 40 0 0 93 c0 106 9 125 60 136 28 5 36 12 38
34 3 25 1 27 -32 27 -25 0 -39 -6 -50 -22 l-16 -22 0 22 c0 19 -5 22 -40 22
l-40 0 0 -145z"/>
</g>
</svg>
