<?xml version="1.0" encoding="UTF-8"?>
<!DOCTYPE svg PUBLIC "-//W3C//DTD SVG 1.1//EN" "http://www.w3.org/Graphics/SVG/1.1/DTD/svg11.dtd">
<svg xmlns="http://www.w3.org/2000/svg" version="1.1" width="403px" height="118px" style="shape-rendering:geometricPrecision; text-rendering:geometricPrecision; image-rendering:optimizeQuality; fill-rule:evenodd; clip-rule:evenodd" xmlns:xlink="http://www.w3.org/1999/xlink">
<g><path style="opacity:1" fill="#111111" d="M 163.5,41.5 C 162.969,45.7119 163.969,46.3785 166.5,43.5C 168.027,43.573 169.027,42.9063 169.5,41.5C 171.027,41.573 172.027,40.9063 172.5,39.5C 184.665,35.2778 195.665,37.2778 205.5,45.5C 206.08,47.7488 207.413,49.4154 209.5,50.5C 209.427,52.0269 210.094,53.0269 211.5,53.5C 212.222,53.9175 212.722,54.5842 213,55.5C 213.852,54.4293 214.685,53.4293 215.5,52.5C 216.906,52.0269 217.573,51.0269 217.5,49.5C 217.833,48.5 218.5,47.8333 219.5,47.5C 220.833,46.8333 221.833,45.8333 222.5,44.5C 224.404,44.2624 225.738,43.2624 226.5,41.5C 226.842,40.6618 227.508,40.3284 228.5,40.5C 230.898,40.7406 232.898,40.0739 234.5,38.5C 243.929,36.043 252.596,37.7097 260.5,43.5C 260.783,44.2891 261.283,44.9558 262,45.5C 262.499,40.5111 262.666,35.5111 262.5,30.5C 263.486,26.03 263.819,21.3633 263.5,16.5C 267.833,16.5 272.167,16.5 276.5,16.5C 276.167,29.85 276.501,43.1833 277.5,56.5C 278.298,56.0431 278.631,55.3764 278.5,54.5C 279.906,54.0269 280.573,53.0269 280.5,51.5C 281.906,51.0269 282.573,50.0269 282.5,48.5C 282.833,47.5 283.5,46.8333 284.5,46.5C 286.404,46.2624 287.738,45.2624 288.5,43.5C 290.027,43.573 291.027,42.9063 291.5,41.5C 292.514,40.3263 293.847,39.6596 295.5,39.5C 298.428,39.4349 301.095,38.7682 303.5,37.5C 310.969,35.9931 317.969,37.3264 324.5,41.5C 325.035,43.4456 326.368,44.4456 328.5,44.5C 330.167,45.5 331.5,46.8333 332.5,48.5C 332.218,49.7777 331.551,50.7777 330.5,51.5C 326.865,52.1143 323.198,52.4476 319.5,52.5C 308.729,47.186 299.229,48.8526 291,57.5C 289.218,60.6319 288.052,63.9653 287.5,67.5C 286.115,68.3023 286.282,68.9689 288,69.5C 288.765,69.4301 289.265,69.0967 289.5,68.5C 291.898,68.7406 293.898,68.0739 295.5,66.5C 295.833,66.5 296.167,66.5 296.5,66.5C 298.898,66.7406 300.898,66.0739 302.5,64.5C 303.568,63.5655 304.901,63.2322 306.5,63.5C 308.898,63.7406 310.898,63.0739 312.5,61.5C 314.701,60.4336 317.035,59.767 319.5,59.5C 323.214,59.4098 326.548,58.4098 329.5,56.5C 331.515,55.0762 333.848,54.4095 336.5,54.5C 335.454,50.0761 334.121,45.7428 332.5,41.5C 334.048,40.2057 336.048,39.5391 338.5,39.5C 340.921,39.56 343.254,39.8934 345.5,40.5C 347.931,44.1108 349.597,48.1108 350.5,52.5C 350.166,55.491 351.166,57.8243 353.5,59.5C 354.892,62.0067 355.892,64.6733 356.5,67.5C 356.12,69.698 356.787,71.3646 358.5,72.5C 359.773,74.7128 360.773,77.0462 361.5,79.5C 361.56,80.0431 361.893,80.3764 362.5,80.5C 363.386,79.675 363.719,78.675 363.5,77.5C 364.658,74.0111 365.991,70.6777 367.5,67.5C 369.834,65.8243 370.834,63.491 370.5,60.5C 370.5,60.1667 370.5,59.8333 370.5,59.5C 372.834,57.8243 373.834,55.491 373.5,52.5C 373.5,52.1667 373.5,51.8333 373.5,51.5C 375.213,50.3646 375.88,48.698 375.5,46.5C 376.264,43.9823 377.264,41.649 378.5,39.5C 382.5,39.5 386.5,39.5 390.5,39.5C 390.5,40.5 390.5,41.5 390.5,42.5C 388.6,49.8759 385.934,56.8759 382.5,63.5C 381.069,64.7804 380.402,66.4471 380.5,68.5C 377.204,78.0671 373.538,87.4005 369.5,96.5C 368.609,97.2613 367.942,98.2613 367.5,99.5C 363.454,100.765 359.454,100.765 355.5,99.5C 355.598,97.4471 354.931,95.7804 353.5,94.5C 350.066,87.0547 346.9,79.3881 344,71.5C 343.152,69.1257 341.819,67.1257 340,65.5C 330.548,68.4042 321.048,71.0709 311.5,73.5C 309.102,73.2594 307.102,73.9261 305.5,75.5C 304.292,76.2341 302.959,76.5674 301.5,76.5C 298.848,76.4095 296.515,77.0762 294.5,78.5C 293.791,79.404 292.791,79.7373 291.5,79.5C 291.961,82.3033 293.295,84.6366 295.5,86.5C 295.821,88.0481 296.821,88.7148 298.5,88.5C 304.82,89.7876 311.153,89.7876 317.5,88.5C 319.027,88.573 320.027,87.9063 320.5,86.5C 323.946,82.5995 326.613,78.2661 328.5,73.5C 330.898,73.7406 332.898,73.0739 334.5,71.5C 336.167,71.5 337.833,71.5 339.5,71.5C 339.5,73.5 339.5,75.5 339.5,77.5C 336.426,90.408 328.426,98.5747 315.5,102C 311.372,103.393 307.372,103.56 303.5,102.5C 301.095,101.232 298.428,100.565 295.5,100.5C 287.891,97.2238 282.224,91.8905 278.5,84.5C 278.44,83.9569 278.107,83.6236 277.5,83.5C 276.504,89.4632 276.171,95.4632 276.5,101.5C 272.167,101.5 267.833,101.5 263.5,101.5C 263.799,99.396 263.466,97.396 262.5,95.5C 261.893,95.6236 261.56,95.9569 261.5,96.5C 251.668,104.122 241.002,105.456 229.5,100.5C 229.027,99.0937 228.027,98.427 226.5,98.5C 220.853,95.0178 216.353,90.3511 213,84.5C 205.705,98.8953 194.205,104.895 178.5,102.5C 176.485,101.076 174.152,100.41 171.5,100.5C 170.508,100.672 169.842,100.338 169.5,99.5C 169.027,98.0937 168.027,97.427 166.5,97.5C 165.508,97.6716 164.842,97.3382 164.5,96.5C 164.44,95.9569 164.107,95.6236 163.5,95.5C 162.548,97.0453 162.215,98.712 162.5,100.5C 158.167,100.5 153.833,100.5 149.5,100.5C 149.83,93.8002 149.497,87.1335 148.5,80.5C 147.614,81.325 147.281,82.325 147.5,83.5C 139.939,97.4467 128.272,103.78 112.5,102.5C 110.485,101.076 108.152,100.41 105.5,100.5C 103.847,100.34 102.514,99.6737 101.5,98.5C 101.027,97.0937 100.027,96.427 98.5,96.5C 97.7377,94.7376 96.4044,93.7376 94.5,93.5C 93.5,93.1667 92.8333,92.5 92.5,91.5C 92.573,89.9731 91.9063,88.9731 90.5,88.5C 88.7497,87.3406 87.7497,85.674 87.5,83.5C 87.7406,81.1016 87.0739,79.1016 85.5,77.5C 85.5,77.1667 85.5,76.8333 85.5,76.5C 84.8333,73.8333 84.1667,73.8333 83.5,76.5C 83.7373,77.791 83.404,78.791 82.5,79.5C 80.3987,82.7966 79.0653,86.4632 78.5,90.5C 77.9094,93.9399 76.9094,97.2732 75.5,100.5C 71.5411,101.66 67.5411,101.827 63.5,101C 59.8671,90.6009 56.5337,80.1009 53.5,69.5C 53.719,68.325 53.3857,67.325 52.5,66.5C 51.8933,66.6236 51.56,66.9569 51.5,67.5C 50.0687,68.7804 49.4021,70.4471 49.5,72.5C 49.405,74.7857 48.7384,76.7857 47.5,78.5C 46.0762,80.5145 45.4095,82.8478 45.5,85.5C 44.4054,90.7841 42.7387,95.7841 40.5,100.5C 36.3998,100.763 32.3998,100.43 28.5,99.5C 25.4625,92.058 22.7959,84.3914 20.5,76.5C 20.7406,74.1016 20.0739,72.1016 18.5,70.5C 16.1291,65.0591 14.1291,59.3925 12.5,53.5C 12.7406,51.1016 12.0739,49.1016 10.5,47.5C 9.76589,46.2921 9.43255,44.9587 9.5,43.5C 9.5,42.1667 9.5,40.8333 9.5,39.5C 13.6002,39.2367 17.6002,39.5701 21.5,40.5C 21.1201,42.698 21.7868,44.3646 23.5,45.5C 24.5664,47.7014 25.233,50.0347 25.5,52.5C 25.1201,54.698 25.7868,56.3646 27.5,57.5C 28.5664,59.7014 29.233,62.0347 29.5,64.5C 29.1201,66.698 29.7868,68.3646 31.5,69.5C 31.5,69.8333 31.5,70.1667 31.5,70.5C 31.1201,72.698 31.7868,74.3646 33.5,75.5C 34.404,76.209 34.7373,77.209 34.5,78.5C 35.3023,79.8847 35.9689,79.718 36.5,78C 37.2335,76.2341 37.5668,74.4008 37.5,72.5C 38.3307,69.341 39.3307,66.341 40.5,63.5C 42.0739,61.8984 42.7406,59.8984 42.5,57.5C 44.4725,54.9164 45.4725,51.9164 45.5,48.5C 45.2627,47.209 45.596,46.209 46.5,45.5C 50.0641,44.5773 53.7307,44.244 57.5,44.5C 58.1098,45.391 58.4431,46.391 58.5,47.5C 58.2594,49.8984 58.9261,51.8984 60.5,53.5C 60.5,53.8333 60.5,54.1667 60.5,54.5C 60.1201,56.698 60.7868,58.3646 62.5,59.5C 63.2341,60.7079 63.5674,62.0413 63.5,63.5C 63.1201,65.698 63.7868,67.3646 65.5,68.5C 66.2341,69.7079 66.5674,71.0413 66.5,72.5C 66.4021,74.5529 67.0687,76.2196 68.5,77.5C 68.5,77.8333 68.5,78.1667 68.5,78.5C 69.0768,79.7733 69.7435,79.7733 70.5,78.5C 71.3094,76.9291 71.6427,75.2624 71.5,73.5C 71.2627,72.209 71.596,71.209 72.5,70.5C 74.4725,67.9164 75.4725,64.9164 75.5,61.5C 75.2627,60.209 75.596,59.209 76.5,58.5C 78.4725,55.9164 79.4725,52.9164 79.5,49.5C 79.5569,48.391 79.8902,47.391 80.5,46.5C 82.0739,44.8984 82.7406,42.8984 82.5,40.5C 84.7455,39.8934 87.0788,39.56 89.5,39.5C 91.9522,39.5391 93.9522,40.2057 95.5,41.5C 95.3505,42.552 95.5172,43.552 96,44.5C 98.8255,42.1707 101.992,40.5041 105.5,39.5C 111.07,38.1033 116.736,37.4366 122.5,37.5C 123.167,37.5 123.833,37.5 124.5,37.5C 125.78,38.9313 127.447,39.5979 129.5,39.5C 132.45,40.3084 135.117,41.6418 137.5,43.5C 137.5,44.8333 138.167,45.5 139.5,45.5C 139.859,47.371 140.859,48.871 142.5,50C 141.584,50.2784 140.918,50.7784 140.5,51.5C 139.791,52.404 138.791,52.7373 137.5,52.5C 134.5,52.5 131.5,52.5 128.5,52.5C 128.027,51.0937 127.027,50.427 125.5,50.5C 125.167,50.5 124.833,50.5 124.5,50.5C 120.411,47.0617 116.077,46.7284 111.5,49.5C 105.914,52.0841 101.58,56.0841 98.5,61.5C 96.8372,63.4385 96.1706,65.7718 96.5,68.5C 100.924,68.7276 104.924,67.7276 108.5,65.5C 108.833,65.5 109.167,65.5 109.5,65.5C 113.162,65.2766 116.495,64.2766 119.5,62.5C 121.898,62.7406 123.898,62.0739 125.5,60.5C 126.568,59.5655 127.901,59.2322 129.5,59.5C 132.152,59.5905 134.485,58.9238 136.5,57.5C 138.214,56.2616 140.214,55.595 142.5,55.5C 144.898,55.7406 146.898,55.0739 148.5,53.5C 149.495,41.3446 149.829,29.0113 149.5,16.5C 153.833,16.5 158.167,16.5 162.5,16.5C 162.174,25.0168 162.507,33.3501 163.5,41.5 Z M 190.5,51.5 C 190.973,52.9063 191.973,53.573 193.5,53.5C 194.167,54.8333 195.167,55.8333 196.5,56.5C 197.752,58.0009 198.752,59.6675 199.5,61.5C 200.36,65.4338 200.693,69.4338 200.5,73.5C 199.637,75.4214 198.971,77.4214 198.5,79.5C 196.167,81.1667 194.167,83.1667 192.5,85.5C 190.167,86.1667 187.833,86.8333 185.5,87.5C 181.785,87.577 178.119,87.2436 174.5,86.5C 174.158,85.6618 173.492,85.3284 172.5,85.5C 172.167,84.5 171.5,83.8333 170.5,83.5C 169.833,83.1667 169.167,82.8333 168.5,82.5C 168.573,80.9731 167.906,79.9731 166.5,79.5C 166.204,77.597 165.537,75.9303 164.5,74.5C 164.372,70.1186 164.705,65.7853 165.5,61.5C 171.207,51.819 179.54,48.4856 190.5,51.5 Z M 254.5,52.5 C 254.973,53.9063 255.973,54.573 257.5,54.5C 258.167,55.5 258.833,56.5 259.5,57.5C 259.932,58.7095 260.599,59.7095 261.5,60.5C 264.078,69.5213 262.411,77.5213 256.5,84.5C 254.973,84.427 253.973,85.0937 253.5,86.5C 253.167,86.5 252.833,86.5 252.5,86.5C 248.215,87.2949 243.881,87.6282 239.5,87.5C 237.544,86.5082 235.544,85.5082 233.5,84.5C 232.5,82.8333 231.167,81.5 229.5,80.5C 228.736,77.9823 227.736,75.649 226.5,73.5C 226.395,69.4517 226.728,65.4517 227.5,61.5C 233.815,50.8572 242.815,47.8572 254.5,52.5 Z M 149.5,67.5 C 146.527,68.9866 143.527,70.3199 140.5,71.5C 138.5,71.5 137.5,72.5 137.5,74.5C 136.463,75.9303 135.796,77.597 135.5,79.5C 134.662,79.8417 134.328,80.5084 134.5,81.5C 132.833,82.5 131.5,83.8333 130.5,85.5C 128.973,85.427 127.973,86.0937 127.5,87.5C 121.167,88.8333 114.833,88.8333 108.5,87.5C 107.564,86.0256 106.23,85.0256 104.5,84.5C 103.26,83.027 102.26,81.3604 101.5,79.5C 117.085,74.3053 132.751,69.3053 148.5,64.5C 149.386,65.325 149.719,66.325 149.5,67.5 Z"/></g>
<g><path style="opacity:0.696" fill="#5b5b5b" d="M 278.5,54.5 C 278.631,55.3764 278.298,56.0431 277.5,56.5C 276.501,43.1833 276.167,29.85 276.5,16.5C 272.167,16.5 267.833,16.5 263.5,16.5C 263.819,21.3633 263.486,26.03 262.5,30.5C 262.5,28.8333 262.5,27.1667 262.5,25.5C 262.5,22.1667 262.5,18.8333 262.5,15.5C 267.5,15.5 272.5,15.5 277.5,15.5C 277.171,28.6774 277.505,41.6774 278.5,54.5 Z"/></g>
<g><path style="opacity:0.617" fill="#727272" d="M 163.5,34.5 C 163.5,36.8333 163.5,39.1667 163.5,41.5C 162.507,33.3501 162.174,25.0168 162.5,16.5C 158.167,16.5 153.833,16.5 149.5,16.5C 149.829,29.0113 149.495,41.3446 148.5,53.5C 148.5,40.8333 148.5,28.1667 148.5,15.5C 153.5,15.5 158.5,15.5 163.5,15.5C 163.5,21.8333 163.5,28.1667 163.5,34.5 Z"/></g>
<g><path style="opacity:0.139" fill="#dddddd" d="M 262.5,25.5 C 262.5,27.1667 262.5,28.8333 262.5,30.5C 262.666,35.5111 262.499,40.5111 262,45.5C 261.283,44.9558 260.783,44.2891 260.5,43.5C 261.167,37.5 261.833,31.5 262.5,25.5 Z"/></g>
<g><path style="opacity:0.522" fill="#7b7b7b" d="M 21.5,40.5 C 17.6002,39.5701 13.6002,39.2367 9.5,39.5C 9.5,40.8333 9.5,42.1667 9.5,43.5C 7.99205,40.9201 8.65872,38.9201 11.5,37.5C 15.2764,37.77 18.6098,38.77 21.5,40.5 Z"/></g>
<g><path style="opacity:0.831" fill="#7b7b7b" d="M 95.5,41.5 C 93.9522,40.2057 91.9522,39.5391 89.5,39.5C 87.0788,39.56 84.7455,39.8934 82.5,40.5C 82.4142,39.5041 82.7476,38.6708 83.5,38C 87.8706,37.3708 92.204,37.5375 96.5,38.5C 96.7373,39.791 96.404,40.791 95.5,41.5 Z"/></g>
<g><path style="opacity:0.965" fill="#828282" d="M 122.5,37.5 C 116.736,37.4366 111.07,38.1033 105.5,39.5C 110.957,36.655 116.624,35.9883 122.5,37.5 Z"/></g>
<g><path style="opacity:0.443" fill="#aaaaaa" d="M 124.5,37.5 C 126.553,37.4021 128.22,38.0687 129.5,39.5C 127.447,39.5979 125.78,38.9313 124.5,37.5 Z"/></g>
<g><path style="opacity:0.875" fill="#6b6b6b" d="M 303.5,37.5 C 301.095,38.7682 298.428,39.4349 295.5,39.5C 297.838,37.9605 300.505,37.2938 303.5,37.5 Z"/></g>
<g><path style="opacity:0.836" fill="#757575" d="M 345.5,40.5 C 343.254,39.8934 340.921,39.56 338.5,39.5C 336.048,39.5391 334.048,40.2057 332.5,41.5C 331.209,40.4583 331.209,39.2917 332.5,38C 336.377,37.2713 340.211,37.438 344,38.5C 345.03,38.8361 345.53,39.5028 345.5,40.5 Z"/></g>
<g><path style="opacity:0.82" fill="#777777" d="M 390.5,42.5 C 390.5,41.5 390.5,40.5 390.5,39.5C 386.5,39.5 382.5,39.5 378.5,39.5C 382.373,37.5698 386.706,36.9031 391.5,37.5C 391.784,39.4147 391.451,41.0813 390.5,42.5 Z"/></g>
<g><path style="opacity:0.957" fill="#5a5a5a" d="M 234.5,38.5 C 232.898,40.0739 230.898,40.7406 228.5,40.5C 230.102,38.9261 232.102,38.2594 234.5,38.5 Z"/></g>
<g><path style="opacity:0.765" fill="#828282" d="M 172.5,39.5 C 172.027,40.9063 171.027,41.573 169.5,41.5C 169.973,40.0937 170.973,39.427 172.5,39.5 Z"/></g>
<g><path style="opacity:0.067" fill="#e3e3e3" d="M 163.5,34.5 C 163.89,37.7967 164.89,40.7967 166.5,43.5C 163.969,46.3785 162.969,45.7119 163.5,41.5C 163.5,39.1667 163.5,36.8333 163.5,34.5 Z"/></g>
<g><path style="opacity:0.776" fill="#747474" d="M 169.5,41.5 C 169.027,42.9063 168.027,43.573 166.5,43.5C 166.973,42.0937 167.973,41.427 169.5,41.5 Z"/></g>
<g><path style="opacity:0.776" fill="#6d6d6d" d="M 226.5,41.5 C 225.738,43.2624 224.404,44.2624 222.5,44.5C 223.262,42.7376 224.596,41.7376 226.5,41.5 Z"/></g>
<g><path style="opacity:0.808" fill="#707070" d="M 291.5,41.5 C 291.027,42.9063 290.027,43.573 288.5,43.5C 288.973,42.0937 289.973,41.427 291.5,41.5 Z"/></g>
<g><path style="opacity:0.969" fill="#767676" d="M 324.5,41.5 C 326.23,42.0256 327.564,43.0256 328.5,44.5C 326.368,44.4456 325.035,43.4456 324.5,41.5 Z"/></g>
<g><path style="opacity:0.808" fill="#888888" d="M 21.5,40.5 C 22.5375,41.9303 23.2041,43.597 23.5,45.5C 21.7868,44.3646 21.1201,42.698 21.5,40.5 Z"/></g>
<g><path style="opacity:0.476" fill="#959595" d="M 57.5,44.5 C 53.7307,44.244 50.0641,44.5773 46.5,45.5C 47.8714,44.2132 49.7047,43.5465 52,43.5C 54.0326,43.5056 55.866,43.8389 57.5,44.5 Z"/></g>
<g><path style="opacity:0.765" fill="#919191" d="M 82.5,40.5 C 82.7406,42.8984 82.0739,44.8984 80.5,46.5C 80.595,44.2143 81.2616,42.2143 82.5,40.5 Z"/></g>
<g><path style="opacity:0.596" fill="#acacac" d="M 137.5,43.5 C 138.5,43.8333 139.167,44.5 139.5,45.5C 138.167,45.5 137.5,44.8333 137.5,43.5 Z"/></g>
<g><path style="opacity:0.698" fill="#828282" d="M 288.5,43.5 C 287.738,45.2624 286.404,46.2624 284.5,46.5C 285.262,44.7376 286.596,43.7376 288.5,43.5 Z"/></g>
<g><path style="opacity:0.725" fill="#9b9b9b" d="M 139.5,45.5 C 142.044,46.7079 143.378,48.7079 143.5,51.5C 142.5,51.5 141.5,51.5 140.5,51.5C 140.918,50.7784 141.584,50.2784 142.5,50C 140.859,48.871 139.859,47.371 139.5,45.5 Z"/></g>
<g><path style="opacity:0.702" fill="#989898" d="M 205.5,45.5 C 207.587,46.5846 208.92,48.2512 209.5,50.5C 207.413,49.4154 206.08,47.7488 205.5,45.5 Z"/></g>
<g><path style="opacity:0.561" fill="#969696" d="M 222.5,44.5 C 221.833,45.8333 220.833,46.8333 219.5,47.5C 219.5,45.5 220.5,44.5 222.5,44.5 Z"/></g>
<g><path style="opacity:0.784" fill="#8e8e8e" d="M 124.5,50.5 C 122.135,49.9916 119.801,49.3249 117.5,48.5C 115.591,49.3482 113.591,49.6816 111.5,49.5C 116.077,46.7284 120.411,47.0617 124.5,50.5 Z"/></g>
<g><path style="opacity:0.82" fill="#898989" d="M 375.5,46.5 C 375.88,48.698 375.213,50.3646 373.5,51.5C 373.796,49.597 374.463,47.9303 375.5,46.5 Z"/></g>
<g><path style="opacity:0.506" fill="#a0a0a0" d="M 10.5,47.5 C 12.0739,49.1016 12.7406,51.1016 12.5,53.5C 11.2616,51.7857 10.595,49.7857 10.5,47.5 Z"/></g>
<g><path style="opacity:0.69" fill="#a4a4a4" d="M 58.5,47.5 C 59.7384,49.2143 60.405,51.2143 60.5,53.5C 58.9261,51.8984 58.2594,49.8984 58.5,47.5 Z"/></g>
<g><path style="opacity:0.431" fill="#a4a4a4" d="M 282.5,48.5 C 282.573,50.0269 281.906,51.0269 280.5,51.5C 280.427,49.9731 281.094,48.9731 282.5,48.5 Z"/></g>
<g><path style="opacity:0.369" fill="#999999" d="M 332.5,48.5 C 334.867,50.5403 334.2,51.5403 330.5,51.5C 331.551,50.7777 332.218,49.7777 332.5,48.5 Z"/></g>
<g><path style="opacity:0.824" fill="#858585" d="M 45.5,48.5 C 45.4725,51.9164 44.4725,54.9164 42.5,57.5C 42.9281,54.2154 43.9281,51.2154 45.5,48.5 Z"/></g>
<g><path style="opacity:0.396" fill="#9d9d9d" d="M 125.5,50.5 C 127.027,50.427 128.027,51.0937 128.5,52.5C 126.973,52.573 125.973,51.9063 125.5,50.5 Z"/></g>
<g><path style="opacity:0.439" fill="#979797" d="M 217.5,49.5 C 217.573,51.0269 216.906,52.0269 215.5,52.5C 215.427,50.9731 216.094,49.9731 217.5,49.5 Z"/></g>
<g><path style="opacity:0.773" fill="#919191" d="M 79.5,49.5 C 79.4725,52.9164 78.4725,55.9164 76.5,58.5C 76.9281,55.2154 77.9281,52.2154 79.5,49.5 Z"/></g>
<g><path style="opacity:0.808" fill="#868686" d="M 128.5,52.5 C 131.5,52.5 134.5,52.5 137.5,52.5C 134.447,54.8803 131.447,54.8803 128.5,52.5 Z"/></g>
<g><path style="opacity:0.302" fill="#afafaf" d="M 190.5,51.5 C 192.027,51.427 193.027,52.0937 193.5,53.5C 191.973,53.573 190.973,52.9063 190.5,51.5 Z"/></g>
<g><path style="opacity:0.412" fill="#949494" d="M 209.5,50.5 C 210.906,50.9731 211.573,51.9731 211.5,53.5C 210.094,53.0269 209.427,52.0269 209.5,50.5 Z"/></g>
<g><path style="opacity:0.122" fill="#a6a6a6" d="M 330.5,51.5 C 327.858,52.8064 325.025,53.8064 322,54.5C 321.005,53.9341 320.172,53.2674 319.5,52.5C 323.198,52.4476 326.865,52.1143 330.5,51.5 Z"/></g>
<g><path style="opacity:0.706" fill="#979797" d="M 193.5,53.5 C 195.5,53.5 196.5,54.5 196.5,56.5C 195.167,55.8333 194.167,54.8333 193.5,53.5 Z"/></g>
<g><path style="opacity:0.51" fill="#919191" d="M 254.5,52.5 C 256.027,52.427 257.027,53.0937 257.5,54.5C 255.973,54.573 254.973,53.9063 254.5,52.5 Z"/></g>
<g><path style="opacity:0.467" fill="#939393" d="M 280.5,51.5 C 280.573,53.0269 279.906,54.0269 278.5,54.5C 278.427,52.9731 279.094,51.9731 280.5,51.5 Z"/></g>
<g><path style="opacity:0.776" fill="#868686" d="M 148.5,53.5 C 146.898,55.0739 144.898,55.7406 142.5,55.5C 144.214,54.2616 146.214,53.595 148.5,53.5 Z"/></g>
<g><path style="opacity:0.804" fill="#8a8a8a" d="M 25.5,52.5 C 26.5375,53.9303 27.2041,55.597 27.5,57.5C 25.7868,56.3646 25.1201,54.698 25.5,52.5 Z"/></g>
<g><path style="opacity:0.941" fill="#7d7d7d" d="M 350.5,52.5 C 352.065,54.5093 353.065,56.8427 353.5,59.5C 351.166,57.8243 350.166,55.491 350.5,52.5 Z"/></g>
<g><path style="opacity:0.965" fill="#6c6c6c" d="M 373.5,52.5 C 373.834,55.491 372.834,57.8243 370.5,59.5C 370.935,56.8427 371.935,54.5093 373.5,52.5 Z"/></g>
<g><path style="opacity:0.882" fill="#707070" d="M 60.5,54.5 C 61.5375,55.9303 62.2041,57.597 62.5,59.5C 60.7868,58.3646 60.1201,56.698 60.5,54.5 Z"/></g>
<g><path style="opacity:0.906" fill="#717171" d="M 329.5,56.5 C 326.548,58.4098 323.214,59.4098 319.5,59.5C 322.55,57.8993 325.884,56.8993 329.5,56.5 Z"/></g>
<g><path style="opacity:0.82" fill="#686868" d="M 136.5,57.5 C 134.485,58.9238 132.152,59.5905 129.5,59.5C 131.515,58.0762 133.848,57.4095 136.5,57.5 Z"/></g>
<g><path style="opacity:0.016" fill="#b7b7b7" d="M 259.5,57.5 C 261.048,57.8212 261.715,58.8212 261.5,60.5C 260.599,59.7095 259.932,58.7095 259.5,57.5 Z"/></g>
<g><path style="opacity:0.694" fill="#9d9d9d" d="M 42.5,57.5 C 42.7406,59.8984 42.0739,61.8984 40.5,63.5C 40.595,61.2143 41.2616,59.2143 42.5,57.5 Z"/></g>
<g><path style="opacity:0.863" fill="#727272" d="M 125.5,60.5 C 123.898,62.0739 121.898,62.7406 119.5,62.5C 121.214,61.2616 123.214,60.595 125.5,60.5 Z"/></g>
<g><path style="opacity:0.8" fill="#7e7e7e" d="M 312.5,61.5 C 310.898,63.0739 308.898,63.7406 306.5,63.5C 308.214,62.2616 310.214,61.595 312.5,61.5 Z"/></g>
<g><path style="opacity:0.855" fill="#636363" d="M 119.5,62.5 C 116.495,64.2766 113.162,65.2766 109.5,65.5C 112.505,63.7234 115.838,62.7234 119.5,62.5 Z"/></g>
<g><path style="opacity:0.961" fill="#656565" d="M 370.5,60.5 C 370.834,63.491 369.834,65.8243 367.5,67.5C 367.935,64.8427 368.935,62.5093 370.5,60.5 Z"/></g>
<g><path style="opacity:0.749" fill="#949494" d="M 75.5,61.5 C 75.4725,64.9164 74.4725,67.9164 72.5,70.5C 72.9281,67.2154 73.9281,64.2154 75.5,61.5 Z"/></g>
<g><path style="opacity:0.557" fill="#8c8c8c" d="M 227.5,61.5 C 226.728,65.4517 226.395,69.4517 226.5,73.5C 225.84,72.036 225.507,70.3693 225.5,68.5C 225.316,65.7954 225.983,63.4621 227.5,61.5 Z"/></g>
<g><path style="opacity:0.859" fill="#797979" d="M 302.5,64.5 C 300.898,66.0739 298.898,66.7406 296.5,66.5C 298.214,65.2616 300.214,64.595 302.5,64.5 Z"/></g>
<g><path style="opacity:0.627" fill="#a6a6a6" d="M 51.5,67.5 C 51.56,66.9569 51.8933,66.6236 52.5,66.5C 53.3857,67.325 53.719,68.325 53.5,69.5C 52.8333,68.8333 52.1667,68.1667 51.5,67.5 Z"/></g>
<g><path style="opacity:0.867" fill="#797979" d="M 63.5,63.5 C 64.5375,64.9303 65.2041,66.597 65.5,68.5C 63.7868,67.3646 63.1201,65.698 63.5,63.5 Z"/></g>
<g><path style="opacity:0.859" fill="#838383" d="M 98.5,61.5 C 98.1667,63.5 97.8333,65.5 97.5,67.5C 101.197,66.9922 104.864,66.3255 108.5,65.5C 104.924,67.7276 100.924,68.7276 96.5,68.5C 96.1706,65.7718 96.8372,63.4385 98.5,61.5 Z"/></g>
<g><path style="opacity:0.325" fill="#b1b1b1" d="M 382.5,63.5 C 382.598,65.5529 381.931,67.2196 380.5,68.5C 380.402,66.4471 381.069,64.7804 382.5,63.5 Z"/></g>
<g><path style="opacity:0.871" fill="#7b7b7b" d="M 29.5,64.5 C 30.5375,65.9303 31.2041,67.597 31.5,69.5C 29.7868,68.3646 29.1201,66.698 29.5,64.5 Z"/></g>
<g><path style="opacity:0.004" fill="#d6d6d6" d="M 199.5,61.5 C 200.117,61.6107 200.617,61.944 201,62.5C 201.81,66.3575 201.643,70.0242 200.5,73.5C 200.693,69.4338 200.36,65.4338 199.5,61.5 Z"/></g>
<g><path style="opacity:0.741" fill="#909090" d="M 295.5,66.5 C 293.898,68.0739 291.898,68.7406 289.5,68.5C 291.214,67.2616 293.214,66.595 295.5,66.5 Z"/></g>
<g><path style="opacity:0.561" fill="#7a7a7a" d="M 287.5,67.5 C 287.842,68.3382 288.508,68.6716 289.5,68.5C 289.265,69.0967 288.765,69.4301 288,69.5C 286.282,68.9689 286.115,68.3023 287.5,67.5 Z"/></g>
<g><path style="opacity:0.251" fill="#989898" d="M 165.5,61.5 C 164.705,65.7853 164.372,70.1186 164.5,74.5C 163.839,72.866 163.506,71.0326 163.5,69C 163.3,66.1345 163.967,63.6345 165.5,61.5 Z"/></g>
<g><path style="opacity:0.373" fill="#aaaaaa" d="M 51.5,67.5 C 51.5979,69.5529 50.9313,71.2196 49.5,72.5C 49.4021,70.4471 50.0687,68.7804 51.5,67.5 Z"/></g>
<g><path style="opacity:0.792" fill="#757575" d="M 149.5,67.5 C 149.586,68.4959 149.252,69.3292 148.5,70C 145.883,70.8215 143.216,71.3215 140.5,71.5C 143.527,70.3199 146.527,68.9866 149.5,67.5 Z"/></g>
<g><path style="opacity:0.78" fill="#7d7d7d" d="M 339.5,77.5 C 339.5,75.5 339.5,73.5 339.5,71.5C 337.833,71.5 336.167,71.5 334.5,71.5C 335.878,70.7656 337.378,70.0989 339,69.5C 340.743,72.1557 340.909,74.8223 339.5,77.5 Z"/></g>
<g><path style="opacity:0.835" fill="#838383" d="M 356.5,67.5 C 357.537,68.9303 358.204,70.597 358.5,72.5C 356.787,71.3646 356.12,69.698 356.5,67.5 Z"/></g>
<g><path style="opacity:0.973" fill="#5d5d5d" d="M 334.5,71.5 C 332.898,73.0739 330.898,73.7406 328.5,73.5C 330.102,71.9261 332.102,71.2594 334.5,71.5 Z"/></g>
<g><path style="opacity:0.51" fill="#9b9b9b" d="M 18.5,70.5 C 20.0739,72.1016 20.7406,74.1016 20.5,76.5C 19.2616,74.7857 18.595,72.7857 18.5,70.5 Z"/></g>
<g><path style="opacity:0.906" fill="#6d6d6d" d="M 31.5,70.5 C 32.5375,71.9303 33.2041,73.597 33.5,75.5C 31.7868,74.3646 31.1201,72.698 31.5,70.5 Z"/></g>
<g><path style="opacity:0.165" fill="#bababa" d="M 311.5,73.5 C 309.786,74.7384 307.786,75.405 305.5,75.5C 307.102,73.9261 309.102,73.2594 311.5,73.5 Z"/></g>
<g><path style="opacity:0.843" fill="#747474" d="M 37.5,72.5 C 37.5668,74.4008 37.2335,76.2341 36.5,78C 35.9689,79.718 35.3023,79.8847 34.5,78.5C 35.5,76.5 36.5,74.5 37.5,72.5 Z"/></g>
<g><path style="opacity:0.094" fill="#c6c6c6" d="M 66.5,72.5 C 67.9313,73.7804 68.5979,75.4471 68.5,77.5C 67.0687,76.2196 66.4021,74.5529 66.5,72.5 Z"/></g>
<g><path style="opacity:0.055" fill="#cdcdcd" d="M 85.5,76.5 C 84.8333,76.5 84.1667,76.5 83.5,76.5C 84.1667,73.8333 84.8333,73.8333 85.5,76.5 Z"/></g>
<g><path style="opacity:0.847" fill="#808080" d="M 137.5,74.5 C 137.88,76.698 137.213,78.3646 135.5,79.5C 135.796,77.597 136.463,75.9303 137.5,74.5 Z"/></g>
<g><path style="opacity:0.867" fill="#777777" d="M 164.5,74.5 C 165.537,75.9303 166.204,77.597 166.5,79.5C 164.787,78.3646 164.12,76.698 164.5,74.5 Z"/></g>
<g><path style="opacity:0.016" fill="#c5c5c5" d="M 301.5,76.5 C 299.485,77.9238 297.152,78.5905 294.5,78.5C 296.515,77.0762 298.848,76.4095 301.5,76.5 Z"/></g>
<g><path style="opacity:0.8" fill="#6d6d6d" d="M 71.5,73.5 C 71.6427,75.2624 71.3094,76.9291 70.5,78.5C 69.7435,79.7733 69.0768,79.7733 68.5,78.5C 69.6873,76.9275 70.6873,75.2608 71.5,73.5 Z"/></g>
<g><path style="opacity:0.62" fill="#a3a3a3" d="M 363.5,77.5 C 363.719,78.675 363.386,79.675 362.5,80.5C 361.893,80.3764 361.56,80.0431 361.5,79.5C 362.167,78.8333 362.833,78.1667 363.5,77.5 Z"/></g>
<g><path style="opacity:0.553" fill="#9b9b9b" d="M 85.5,77.5 C 87.0739,79.1016 87.7406,81.1016 87.5,83.5C 86.2616,81.7857 85.595,79.7857 85.5,77.5 Z"/></g>
<g><path style="opacity:0.008" fill="#c7c7c7" d="M 47.5,78.5 C 47.5905,81.1522 46.9238,83.4855 45.5,85.5C 45.4095,82.8478 46.0762,80.5145 47.5,78.5 Z"/></g>
<g><path style="opacity:0.443" fill="#9e9e9e" d="M 166.5,79.5 C 167.906,79.9731 168.573,80.9731 168.5,82.5C 167.094,82.0269 166.427,81.0269 166.5,79.5 Z"/></g>
<g><path style="opacity:0.733" fill="#959595" d="M 229.5,80.5 C 231.167,81.5 232.5,82.8333 233.5,84.5C 231.167,84.1667 229.833,82.8333 229.5,80.5 Z"/></g>
<g><path style="opacity:0.541" fill="#9c9c9c" d="M 82.5,79.5 C 81.9347,83.5368 80.6013,87.2034 78.5,90.5C 79.0653,86.4632 80.3987,82.7966 82.5,79.5 Z"/></g>
<g><path style="opacity:0.757" fill="#6f6f6f" d="M 134.5,81.5 C 134.167,83.8333 132.833,85.1667 130.5,85.5C 131.5,83.8333 132.833,82.5 134.5,81.5 Z"/></g>
<g><path style="opacity:0.624" fill="#919191" d="M 198.5,79.5 C 197.5,82.5 195.5,84.5 192.5,85.5C 194.167,83.1667 196.167,81.1667 198.5,79.5 Z"/></g>
<g><path style="opacity:0.651" fill="#a1a1a1" d="M 170.5,83.5 C 171.5,83.8333 172.167,84.5 172.5,85.5C 171.167,85.5 170.5,84.8333 170.5,83.5 Z"/></g>
<g><path style="opacity:0.988" fill="#6f6f6f" d="M 104.5,84.5 C 106.23,85.0256 107.564,86.0256 108.5,87.5C 106.368,87.4456 105.035,86.4456 104.5,84.5 Z"/></g>
<g><path style="opacity:0.706" fill="#868686" d="M 256.5,84.5 C 256.027,85.9063 255.027,86.573 253.5,86.5C 253.973,85.0937 254.973,84.427 256.5,84.5 Z"/></g>
<g><path style="opacity:0.741" fill="#818181" d="M 130.5,85.5 C 130.027,86.9063 129.027,87.573 127.5,87.5C 127.973,86.0937 128.973,85.427 130.5,85.5 Z"/></g>
<g><path style="opacity:0.22" fill="#9e9e9e" d="M 174.5,86.5 C 178.119,87.2436 181.785,87.577 185.5,87.5C 184.207,88.1582 182.707,88.4915 181,88.5C 178.456,88.664 176.29,87.9973 174.5,86.5 Z"/></g>
<g><path style="opacity:0.212" fill="#9e9e9e" d="M 252.5,86.5 C 250.366,88.0334 247.866,88.7001 245,88.5C 242.967,88.4944 241.134,88.1611 239.5,87.5C 243.881,87.6282 248.215,87.2949 252.5,86.5 Z"/></g>
<g><path style="opacity:0.678" fill="#555555" d="M 278.5,84.5 C 277.833,90.1667 277.167,95.8333 276.5,101.5C 276.171,95.4632 276.504,89.4632 277.5,83.5C 278.107,83.6236 278.44,83.9569 278.5,84.5 Z"/></g>
<g><path style="opacity:0.957" fill="#6d6d6d" d="M 295.5,86.5 C 296.71,86.9321 297.71,87.5987 298.5,88.5C 296.821,88.7148 295.821,88.0481 295.5,86.5 Z"/></g>
<g><path style="opacity:0.741" fill="#7f7f7f" d="M 320.5,86.5 C 320.027,87.9063 319.027,88.573 317.5,88.5C 317.973,87.0937 318.973,86.427 320.5,86.5 Z"/></g>
<g><path style="opacity:0.416" fill="#949494" d="M 149.5,100.5 C 149.5,100.833 149.5,101.167 149.5,101.5C 148.833,95.5 148.167,89.5 147.5,83.5C 147.281,82.325 147.614,81.325 148.5,80.5C 149.497,87.1335 149.83,93.8002 149.5,100.5 Z"/></g>
<g><path style="opacity:0.008" fill="#c8c8c8" d="M 90.5,88.5 C 91.9063,88.9731 92.573,89.9731 92.5,91.5C 91.0937,91.0269 90.427,90.0269 90.5,88.5 Z"/></g>
<g><path style="opacity:0.753" fill="#919191" d="M 94.5,93.5 C 96.4044,93.7376 97.7377,94.7376 98.5,96.5C 96.5956,96.2624 95.2623,95.2624 94.5,93.5 Z"/></g>
<g><path style="opacity:0.451" fill="#929292" d="M 98.5,96.5 C 100.027,96.427 101.027,97.0937 101.5,98.5C 99.9731,98.573 98.9731,97.9063 98.5,96.5 Z"/></g>
<g><path style="opacity:0.322" fill="#aaaaaa" d="M 261.5,96.5 C 261.56,95.9569 261.893,95.6236 262.5,95.5C 263.466,97.396 263.799,99.396 263.5,101.5C 262.833,99.8333 262.167,98.1667 261.5,96.5 Z"/></g>
<g><path style="opacity:0.404" fill="#a5a5a5" d="M 353.5,94.5 C 354.931,95.7804 355.598,97.4471 355.5,99.5C 354.069,98.2196 353.402,96.5529 353.5,94.5 Z"/></g>
<g><path style="opacity:0.525" fill="#858585" d="M 166.5,97.5 C 168.027,97.427 169.027,98.0937 169.5,99.5C 167.973,99.573 166.973,98.9063 166.5,97.5 Z"/></g>
<g><path style="opacity:0.294" fill="#a5a5a5" d="M 226.5,98.5 C 228.027,98.427 229.027,99.0937 229.5,100.5C 227.973,100.573 226.973,99.9063 226.5,98.5 Z"/></g>
<g><path style="opacity:0.287" fill="#bababa" d="M 28.5,99.5 C 32.3998,100.43 36.3998,100.763 40.5,100.5C 38.6965,101.162 36.6965,101.495 34.5,101.5C 32.0478,101.461 30.0478,100.794 28.5,99.5 Z"/></g>
<g><path style="opacity:0.833" fill="#3e3e3e" d="M 164.5,96.5 C 163.549,97.9187 163.216,99.5853 163.5,101.5C 158.833,101.5 154.167,101.5 149.5,101.5C 149.5,101.167 149.5,100.833 149.5,100.5C 153.833,100.5 158.167,100.5 162.5,100.5C 162.215,98.712 162.548,97.0453 163.5,95.5C 164.107,95.6236 164.44,95.9569 164.5,96.5 Z"/></g>
<g><path style="opacity:0.325" fill="#969696" d="M 369.5,96.5 C 369.579,97.9305 369.246,99.2638 368.5,100.5C 366.333,100.833 364.167,101.167 362,101.5C 359.39,101.467 357.223,100.8 355.5,99.5C 359.454,100.765 363.454,100.765 367.5,99.5C 367.942,98.2613 368.609,97.2613 369.5,96.5 Z"/></g>
<g><path style="opacity:0.537" fill="#898989" d="M 105.5,100.5 C 108.152,100.41 110.485,101.076 112.5,102.5C 109.848,102.59 107.515,101.924 105.5,100.5 Z"/></g>
<g><path style="opacity:0.627" fill="#797979" d="M 171.5,100.5 C 174.152,100.41 176.485,101.076 178.5,102.5C 175.848,102.59 173.515,101.924 171.5,100.5 Z"/></g>
<g><path style="opacity:0.482" fill="#888888" d="M 295.5,100.5 C 298.428,100.565 301.095,101.232 303.5,102.5C 300.505,102.706 297.838,102.04 295.5,100.5 Z"/></g>
</svg>
