<?xml version="1.0" standalone="no"?>
<!DOCTYPE svg PUBLIC "-//W3C//DTD SVG 20010904//EN"
 "http://www.w3.org/TR/2001/REC-SVG-20010904/DTD/svg10.dtd">
<svg version="1.0" xmlns="http://www.w3.org/2000/svg"
 width="1018.000000pt" height="275.000000pt" viewBox="0 0 1018.000000 275.000000"
 preserveAspectRatio="xMidYMid meet">

<g transform="translate(0.000000,275.000000) scale(0.100000,-0.100000)"
fill="#000000" stroke="none">
<path d="M7424 2625 c-4 -8 15 -52 40 -96 25 -45 46 -85 46 -90 0 -4 -34 -33
-75 -64 -41 -31 -93 -78 -115 -103 -78 -92 -145 -252 -151 -363 l-3 -54 713
-3 714 -2 -7 62 c-22 193 -129 371 -287 479 -33 22 -59 46 -59 53 0 7 20 48
45 92 25 43 44 83 42 89 -10 28 -36 2 -81 -78 -41 -75 -52 -88 -70 -84 -11 3
-57 15 -101 27 -113 32 -287 32 -400 0 -44 -12 -89 -24 -101 -27 -18 -4 -30
10 -75 86 -30 50 -58 91 -62 91 -4 0 -10 -7 -13 -15z m187 -413 c30 -78 -69
-140 -120 -76 -25 32 -27 61 -6 91 28 41 109 31 126 -15z m652 16 c39 -46 7
-118 -53 -118 -81 0 -97 115 -20 143 23 8 53 -2 73 -25z"/>
<path d="M2924 2191 c-97 -25 -186 -99 -227 -189 -33 -70 -31 -217 3 -287 97
-200 367 -250 520 -96 73 74 95 128 95 241 0 84 -3 102 -28 151 -32 66 -100
132 -162 160 -50 22 -154 32 -201 20z m164 -158 c45 -33 74 -96 75 -161 0 -76
-16 -121 -58 -162 -31 -30 -43 -35 -98 -38 -52 -3 -67 0 -96 20 -60 41 -76 71
-79 156 -3 66 0 84 20 122 44 84 165 116 236 63z"/>
<path d="M475 2180 c-10 -17 -255 -623 -255 -632 0 -4 33 -8 74 -8 l74 0 24
63 24 62 126 3 126 3 23 -66 24 -65 77 0 78 0 -21 53 c-11 28 -70 175 -131
325 l-111 272 -63 0 c-34 0 -66 -5 -69 -10z m104 -281 c17 -44 31 -85 31 -90
0 -5 -32 -9 -71 -9 -53 0 -70 3 -66 13 2 6 17 47 33 89 16 43 32 78 36 78 3 0
20 -36 37 -81z"/>
<path d="M900 1865 l0 -325 70 0 70 0 0 196 c0 133 3 195 11 192 5 -2 65 -89
132 -193 l123 -190 72 -3 72 -3 0 326 0 325 -70 0 -70 0 -2 -202 -3 -203 -70
108 c-38 59 -97 149 -130 200 l-60 92 -73 3 -72 3 0 -326z"/>
<path d="M1558 2185 c-5 -5 -8 -152 -8 -328 l0 -319 138 4 c126 3 142 5 194
31 70 34 140 110 162 174 9 27 16 79 16 123 0 66 -4 86 -30 138 -36 71 -83
115 -158 150 -46 21 -74 25 -181 29 -69 3 -129 2 -133 -2z m217 -136 c53 -15
110 -73 125 -129 32 -121 -39 -234 -155 -248 l-45 -5 0 197 c0 220 -5 207 75
185z"/>
<path d="M2138 2184 c-5 -4 -8 -151 -8 -326 l0 -318 75 0 74 0 3 126 3 126 98
-126 98 -126 90 0 90 0 -18 23 c-10 13 -56 69 -103 125 -47 57 -85 107 -85
112 0 5 15 19 34 32 63 43 76 70 76 161 0 71 -3 87 -24 116 -41 57 -95 74
-256 79 -77 2 -143 1 -147 -4z m257 -139 c17 -16 25 -35 25 -60 0 -53 -36 -85
-95 -85 l-45 0 0 85 0 85 45 0 c35 0 52 -6 70 -25z"/>
<path d="M3390 1865 l0 -325 76 0 76 0 -3 323 -4 322 -73 3 -72 3 0 -326z"/>
<path d="M3638 2185 c-5 -5 -8 -152 -8 -328 l0 -319 138 4 c162 4 211 21 285
96 63 64 90 129 91 217 1 136 -59 237 -179 296 -59 29 -74 32 -192 36 -70 3
-131 2 -135 -2z m224 -137 c57 -17 115 -84 123 -142 4 -26 5 -63 2 -83 -14
-81 -94 -153 -172 -153 l-35 0 0 195 c0 220 -5 209 82 183z"/>
<path d="M6870 1808 c-29 -16 -50 -36 -63 -61 -19 -36 -20 -64 -21 -460 -1
-383 1 -425 16 -454 26 -47 73 -76 132 -80 66 -5 113 19 143 72 23 40 23 43
23 463 0 401 -1 425 -20 461 -13 27 -33 46 -63 60 -55 27 -92 27 -147 -1z"/>
<path d="M8735 1816 c-41 -18 -83 -69 -90 -109 -3 -18 -5 -217 -3 -444 3 -400
4 -412 24 -440 73 -98 195 -98 268 0 20 28 21 40 24 450 3 422 2 422 -20 467
-39 76 -127 109 -203 76z"/>
<path d="M7166 1758 c-10 -40 -7 -1040 4 -1079 26 -94 86 -137 205 -146 l75
-6 0 -166 c0 -182 9 -220 64 -271 24 -22 37 -25 96 -25 63 0 72 3 101 30 53
50 59 76 59 265 l0 170 110 0 c61 0 110 -3 110 -7 3 -322 5 -348 25 -382 29
-49 67 -73 123 -79 60 -5 113 17 145 62 20 29 22 45 27 216 l5 185 72 7 c79 8
115 23 150 60 53 57 53 55 53 643 l0 545 -709 0 -709 0 -6 -22z"/>
<path d="M3081 1088 c-68 -11 -125 -43 -180 -103 -72 -78 -100 -179 -81 -287
20 -107 74 -185 161 -233 71 -38 189 -47 270 -20 75 25 169 119 193 193 22 67
23 176 1 241 -19 59 -89 141 -149 176 -36 21 -57 27 -141 39 -11 2 -45 -1 -74
-6z m111 -138 c100 -28 148 -186 91 -297 -30 -57 -74 -83 -143 -83 -97 0 -156
58 -167 162 -15 153 86 254 219 218z"/>
<path d="M280 760 l0 -322 143 4 c161 4 196 15 275 92 74 70 87 105 87 226 0
121 -15 161 -86 230 -74 72 -115 85 -276 88 l-143 3 0 -321z m261 174 c39 -19
77 -69 90 -117 32 -120 -51 -247 -163 -247 l-38 0 0 194 0 194 43 -5 c23 -3
54 -12 68 -19z"/>
<path d="M860 760 l0 -320 185 0 185 0 0 60 0 60 -110 0 -110 0 0 70 0 70 105
0 105 0 0 60 0 60 -105 0 -105 0 0 70 0 70 110 0 110 0 0 60 0 60 -185 0 -185
0 0 -320z"/>
<path d="M1260 1074 c0 -3 59 -147 132 -320 l132 -315 59 3 59 3 94 225 c53
124 113 267 134 318 l39 92 -82 0 -82 0 -80 -210 c-44 -115 -83 -206 -86 -202
-4 4 -41 98 -84 210 l-78 202 -78 0 c-44 0 -79 -3 -79 -6z"/>
<path d="M1940 760 l0 -320 185 0 185 0 0 60 0 59 -112 3 -113 3 0 65 0 65
108 3 107 3 0 59 0 59 -107 3 -108 3 0 65 0 65 113 3 112 3 0 59 0 60 -185 0
-185 0 0 -320z"/>
<path d="M2400 760 l0 -320 185 0 185 0 0 60 0 59 -112 3 -113 3 -3 258 -2
257 -70 0 -70 0 0 -320z"/>
<path d="M3530 761 l0 -321 75 0 75 0 0 120 0 120 69 0 c78 0 122 12 170 48
98 73 93 251 -10 319 -42 27 -46 28 -211 31 l-168 4 0 -321z m260 191 c39 -19
56 -55 46 -95 -9 -36 -43 -56 -105 -64 l-51 -6 0 92 0 91 38 0 c20 0 53 -8 72
-18z"/>
<path d="M4057 778 c-15 -167 -27 -311 -27 -320 0 -15 10 -18 70 -18 39 0 70
2 70 4 0 26 32 371 34 374 4 3 20 -41 101 -270 l38 -108 42 0 42 0 63 183 c62
181 80 221 80 180 0 -31 19 -270 26 -321 l5 -42 71 0 71 0 -6 52 c-3 29 -15
174 -28 321 l-23 268 -80 -3 -79 -3 -67 -173 c-37 -95 -71 -173 -76 -174 -5 0
-39 78 -76 174 l-66 173 -79 3 -79 3 -27 -303z"/>
<path d="M4810 760 l0 -320 185 0 185 0 0 60 0 59 -112 3 -113 3 -3 68 -3 67
111 0 110 0 0 60 0 59 -107 3 -108 3 -3 68 -3 67 116 0 115 0 0 60 0 60 -185
0 -185 0 0 -320z"/>
<path d="M5260 760 l0 -320 75 0 75 0 2 199 3 198 126 -196 125 -196 77 -3 77
-3 0 321 0 320 -75 0 -75 0 -2 -197 -3 -198 -126 195 -125 195 -77 3 -77 3 0
-321z"/>
<path d="M5880 1020 l0 -60 75 0 75 0 0 -260 0 -260 70 0 70 0 2 258 3 257 78
3 77 3 0 59 0 60 -225 0 -225 0 0 -60z"/>
</g>
</svg>
